<svg width="444" height="444" xmlns="http://www.w3.org/2000/svg" version="1.0" preserveAspectRatio="xMidYMid meet">
 <g id="Layer_1">
  <title>Layer 1</title>
  <path id="svg_29" d="m181.2576,146.83885c5.58142,-25.11639 5.58142,-25.11639 5.25485,-25.44296c0.32657,0.32657 47.76864,-2.92926 47.44207,-3.25583c0.32657,0.32657 51.95471,-3.39438 51.62813,-3.72095c0.32658,0.32657 46.83841,2.65216 46.51183,2.32559c0.32658,0.32657 11.48942,25.90808 11.16284,25.58151c0.32658,0.32657 -0.13854,20.79178 -0.46512,20.46521c0.32658,0.32657 2.65217,30.55927 2.32559,30.23269c0.32658,0.32657 6.83823,15.21036 -3.39437,32.41974c-10.2326,17.20938 -10.2326,17.20938 -10.55918,16.8828c0.32658,0.32658 -18.74327,12.88477 -19.06985,12.55819c0.32658,0.32658 -21.06887,19.39643 -21.39544,19.06985c0.32658,0.32658 -14.55721,7.76847 -14.88379,7.44189" opacity="NaN" stroke-width="0" stroke="#000" fill="#ead1b7"/>
  <path transform="rotate(0.656851 220.466 234.583)" stroke="#000" id="svg_27" d="m212.94405,145.43023l-42.23488,3.43068l8.57057,174.87471l90.94327,-46.53924l-40.94828,-116.58314l18.56957,30.55607" opacity="NaN" stroke-width="0" fill="#e9a854"/>
  <path id="svg_26" d="m176.1413,149.16444l-12.88477,7.58044l-15.81402,2.32559l-6.51166,3.72095l-0.46512,6.51166l-13.48843,-1.86047l-7.90701,12.09308l-17.20938,8.37213l-9.30237,7.44189l8.37213,25.58151l10.2326,6.04654l0.93024,11.62796l8.37213,11.62796l4.65118,14.88379l12.55819,13.95355c0.32657,0.32658 -7.11532,4.51264 -0.13855,11.95453c6.97678,7.44189 6.97678,7.44189 6.6502,7.11532c0.32657,0.32658 5.44287,16.1406 5.1163,15.81402c0.32657,0.32658 13.34989,11.48942 13.02331,11.16284c0.32657,0.32658 98.46654,-41.99919 98.13997,-42.32577c0.32658,0.32658 -71.30165,38.9314 -71.62822,38.60482" opacity="NaN" stroke-width="0" stroke="#000" fill="#e9a854"/>
  <g id="svg_2" stroke="null">
   <g id="svg_3" transform="translate(0 367) scale(0.1 -0.1)" fill="#000000" stroke="null">
    <path id="svg_4" d="m2776.49545,2544.54436c-51.87593,-4.10572 -149.8638,-9.03259 -218.20829,-10.67488c-67.52105,-2.46343 -230.5597,-7.3903 -362.3081,-11.49602c-259.37966,-8.21144 -302.19789,-15.60174 -350.78011,-55.83782c-42.81823,-36.13036 -56.8165,-77.18758 -56.8165,-168.33461l0,-80.47216l-32.9371,0c-38.70109,0 -85.63646,-21.34976 -114.45642,-52.55325c-16.46855,-17.24403 -27.99653,-21.34976 -61.75706,-21.34976c-77.40218,0 -144.92324,-30.38235 -186.09461,-82.11445c-23.8794,-30.38235 -28.81996,-32.84578 -66.69763,-32.84578c-22.23254,0 -52.69936,-4.92687 -67.52105,-11.49602c-33.76053,-13.95946 -68.34448,-54.19553 -75.75533,-87.04131c-3.29371,-15.60174 -13.17484,-28.74006 -23.05597,-32.84578c-72.46162,-27.09777 -97.98787,-42.69951 -137.51239,-82.93559c-24.70282,-24.63433 -55.16964,-48.44752 -66.69763,-50.91096c-11.52798,-3.28458 -31.29024,-15.60174 -42.81823,-27.09777c-37.05424,-36.13036 -27.17311,-87.86246 26.34968,-137.95227c21.40911,-20.52861 25.52625,-30.38235 25.52625,-62.40698c0,-51.7321 28.81996,-105.10649 72.46162,-133.84655l34.58395,-22.99204l0,-52.55325c0,-40.23608 4.94056,-60.76469 23.05597,-95.25276c20.58569,-39.41493 72.46162,-89.50475 102.10501,-99.35848c7.41085,-2.46343 9.88113,-18.06518 9.0577,-52.55325c-3.29371,-65.69156 20.58569,-111.67565 78.22561,-154.37516l42.81823,-32.02463l0,-47.62638c0,-59.94355 20.58569,-108.39107 65.05077,-151.09058c31.29024,-29.5612 33.76053,-35.30921 33.76053,-74.72415c0,-51.7321 23.05597,-89.50475 71.63819,-116.60251c21.40911,-11.49602 37.05424,-27.09777 42.81823,-42.69951c9.0577,-26.27662 51.87593,-57.48011 79.87247,-57.48011c9.88113,0 39.52452,-13.13831 65.8742,-29.5612c41.17137,-24.63433 53.52279,-27.91891 80.69589,-23.81319c17.29198,2.46343 39.52452,9.85373 48.58222,16.42289c9.88113,6.56916 28.81996,12.31717 42.81823,12.31717c13.17484,0 35.40738,7.3903 48.58222,15.60174c18.93883,12.31717 27.99653,13.95946 47.75879,7.3903c27.99653,-9.85373 80.69589,-3.28458 114.45642,14.7806c13.17484,6.56916 37.87766,30.38235 53.52279,52.55325c27.17311,37.77265 32.11367,41.05722 61.75706,41.05722c39.52452,0 74.10847,16.42289 97.16444,46.80523c13.99827,16.42289 27.99653,22.99204 63.40392,27.91891c24.70282,3.28458 55.16964,13.13831 66.69763,21.34976c35.40738,24.63433 38.70109,26.27662 69.99134,31.20349c17.29198,2.46343 41.17137,13.13831 54.34621,24.63433c12.35141,10.67488 37.87766,22.1709 55.16964,25.45548c20.58569,3.28458 42.81823,16.42289 60.11021,32.84578c26.34968,26.27662 28.81996,26.27662 119.39699,32.02463c149.04038,9.03259 195.15232,27.09777 195.15232,79.65101c0,33.66692 12.35141,42.69951 52.69936,40.23608l37.87766,-1.64229l0,33.66692c0,18.06518 7.41085,48.44752 16.46855,66.5127c23.05597,43.52066 59.28678,64.87041 111.98614,64.87041l41.9948,0l5.76399,43.52066c7.41085,55.83782 36.23081,97.71619 80.69589,119.88709c40.34795,18.88632 108.69243,22.99204 141.62953,8.21144c39.52452,-18.06518 48.58222,3.28458 75.75533,185.57865c18.1154,124.81396 23.8794,371.1573 12.35141,514.85758c-17.29198,205.28612 -62.58049,397.43392 -124.33755,525.53246c-42.81823,88.6836 -57.63992,96.89505 -209.97401,113.31794c-80.69589,8.21144 -304.66817,7.3903 -432.29944,-1.64229l0.00003,0.00002zm452.0617,-56.65897c124.33755,-14.7806 132.57183,-26.27662 153.98094,-200.35925c32.9371,-275.08339 37.87766,-523.89017 15.64512,-740.6723c-21.40911,-206.9284 -16.46855,-192.1478 -72.46162,-203.64383c-59.28678,-11.49602 -102.10501,-45.16295 -128.45469,-101.00077l-20.58569,-41.05722l-41.17137,0.82114c-71.63819,0.82114 -116.10328,-35.30921 -137.51239,-110.8545c-5.76399,-22.99204 -12.35141,-31.20349 -24.70282,-31.20349c-44.46508,0 -83.9896,-36.9515 -105.39872,-99.35848l-15.64512,-44.3418l-40.34795,0l-39.52452,0l-4.11714,41.05722c-2.47028,22.99204 -8.23427,46.80523 -12.35141,53.37439c-4.11714,6.56916 -8.23427,45.16295 -9.0577,86.22017c-0.82343,85.39902 -20.58569,137.13113 -65.05077,174.90377c-20.58569,17.24403 -27.99653,31.20349 -32.11367,59.94355c-3.29371,20.52861 -14.82169,50.08981 -25.52625,65.69156c-12.35141,15.60174 -20.58569,37.77265 -20.58569,55.01668c0,14.7806 -4.94056,35.30921 -9.88113,45.16295c-5.76399,9.85373 -10.70456,49.26867 -10.70456,87.86246c-0.82343,87.86246 -25.52625,141.23685 -82.34275,180.65178c-25.52625,18.06518 -37.05424,31.20349 -37.05424,44.3418c0,10.67488 -10.70456,34.48807 -24.70282,52.55325c-16.46855,22.1709 -24.70282,44.3418 -24.70282,62.40698c0,40.23608 -11.52798,64.87041 -44.46508,98.53734c-26.34968,25.45548 -29.64339,33.66692 -29.64339,72.26071c0,50.08981 -11.52798,76.36643 -24.70282,55.83782c-6.58742,-10.67488 -10.70456,-10.67488 -34.58395,0.82114c-14.82169,7.3903 -37.05424,17.24403 -49.40565,22.1709c-13.17484,5.74801 -23.05597,14.7806 -23.05597,21.34976c0,6.56916 -13.17484,22.99204 -29.64339,37.77265c-27.17311,23.81319 -33.76053,25.45548 -68.34448,21.34976c-20.58569,-2.46343 -45.28851,-4.10572 -54.34621,-3.28458c-70.81476,4.92687 -86.45989,1.64229 -125.16098,-25.45548c-32.11367,-22.99204 -41.9948,-26.27662 -60.11021,-19.70747c-20.58569,6.56916 -20.58569,9.03259 -20.58569,89.50475c0,97.71619 9.88113,119.06595 68.34448,145.34257c34.58395,14.7806 63.40392,17.24403 273.37793,23.81319c199.26945,5.74801 722.96934,27.91891 815.19322,34.48807c41.17137,2.46343 140.8061,-2.46343 221.502,-12.31717l-0.00003,-0.00002zm-1170.9139,-312.85604c13.99827,-13.13831 20.58569,-14.7806 34.58395,-7.3903c9.88113,5.74801 17.29198,14.7806 17.29198,21.34976c0,14.7806 9.0577,15.60174 27.99653,1.64229c9.0577,-6.56916 18.93883,-31.20349 24.70282,-59.94355c7.41085,-39.41493 13.99827,-50.08981 31.29024,-58.30126c38.70109,-18.88632 44.46508,-32.84578 24.70282,-59.94355c-23.8794,-32.02463 -23.05597,-45.98409 4.94056,-63.22812c51.0525,-31.20349 59.28678,-44.3418 59.28678,-88.6836c0,-46.80523 9.88113,-61.58583 41.17137,-61.58583c47.75879,0 82.34275,-48.44752 82.34275,-114.13908c0,-32.84578 -3.29371,-42.69951 -16.46855,-50.08981c-25.52625,-13.13831 -21.40911,-45.98409 7.41085,-61.58583c30.46682,-14.7806 37.05424,-34.48807 29.64339,-86.22017c-4.94056,-38.59379 -4.11714,-41.05722 14.82169,-48.44752c28.81996,-11.49602 38.70109,-32.84578 38.70109,-87.04131c0,-44.3418 0.82343,-45.98409 27.99653,-57.48011c70.81476,-29.5612 102.10501,-138.77341 53.52279,-189.68437c-22.23254,-23.81319 -18.1154,-43.52066 13.17484,-60.76469c30.46682,-17.24403 37.05424,-51.7321 13.99827,-77.18758c-27.17311,-30.38235 -27.99653,-36.9515 -4.94056,-58.30126l22.23254,-20.52861l-32.9371,0c-36.23081,0 -51.87593,-11.49602 -51.87593,-36.9515c0,-36.13036 -46.11194,-50.08981 -75.75533,-22.99204c-22.23254,19.70747 -42.81823,4.92687 -47.75879,-35.30921c-4.94056,-36.9515 -22.23254,-45.16295 -54.34621,-23.81319c-27.17311,17.24403 -41.9948,11.49602 -57.63992,-24.63433c-14.82169,-35.30921 -35.40738,-44.3418 -90.57702,-39.41493l-41.9948,4.10572l-26.34968,-42.69951c-26.34968,-42.69951 -26.34968,-42.69951 -60.93363,-37.77265c-82.34275,12.31717 -81.51932,13.13831 -97.16444,-31.20349c-16.46855,-44.3418 -51.0525,-85.39902 -78.22561,-91.96818c-10.70456,-2.46343 -37.87766,5.74801 -69.16791,21.34976c-55.16964,27.91891 -74.10847,24.63433 -74.10847,-13.13831c0,-23.81319 -11.52798,-31.20349 -24.70282,-15.60174c-16.46855,19.70747 -39.52452,14.7806 -53.52279,-12.31717c-9.88113,-18.88632 -18.1154,-24.63433 -36.23081,-24.63433c-29.64339,0 -40.34795,12.31717 -43.64166,53.37439c-2.47028,32.02463 -3.29371,32.84578 -37.05424,35.30921c-58.46335,4.10572 -98.8113,71.43957 -64.22734,105.92764c19.76226,19.70747 11.52798,36.9515 -26.34968,58.30126c-19.76226,10.67488 -42.81823,30.38235 -52.69936,44.3418c-20.58569,28.74006 -29.64339,92.78932 -18.1154,127.27739c11.52798,32.02463 5.76399,41.05722 -37.05424,63.22812c-21.40911,10.67488 -49.40565,31.20349 -63.40392,45.98409c-23.8794,24.63433 -24.70282,29.5612 -24.70282,96.0739l0,69.79728l-37.87766,18.88632c-76.57876,39.41493 -111.98614,105.10649 -101.28158,189.68437c5.76399,47.62638 -3.29371,68.97613 -29.64339,68.97613c-25.52625,0 -65.05077,40.23608 -74.9319,76.36643c-6.58742,25.45548 -6.58742,41.87837 0.82343,65.69156c10.70456,35.30921 1.64685,55.01668 -24.70282,55.01668c-8.23427,0 -24.70282,11.49602 -36.23081,25.45548c-17.29198,19.70747 -19.76226,27.91891 -12.35141,36.9515c11.52798,13.95946 33.76053,14.7806 46.11194,2.46343c4.94056,-4.92687 17.29198,-7.3903 27.99653,-5.74801c17.29198,2.46343 19.76226,6.56916 19.76226,36.13036c0,22.99204 5.76399,40.23608 16.46855,52.55325c21.40911,23.81319 83.16618,55.01668 124.33755,61.58583c43.64166,8.21144 52.69936,17.24403 52.69936,52.55325c0,43.52066 17.29198,63.22812 66.69763,74.72415c37.87766,9.03259 46.11194,9.03259 70.81476,-4.92687c34.58395,-18.06518 55.99307,-8.21144 56.8165,26.27662c0,36.13036 15.64512,57.48011 55.99307,76.36643c45.28851,22.1709 102.10501,23.81319 135.04211,4.92687c32.11367,-18.88632 51.0525,-11.49602 51.0525,20.52861c0,27.91891 23.05597,54.19553 54.34621,62.40698c41.9948,10.67488 116.9267,-1.64229 143.27638,-24.63433c29.64339,-24.63433 42.81823,-21.34976 65.05077,16.42289c29.64339,49.26867 83.16618,60.76469 121.86727,26.27662l-0.00001,-0.00003z" stroke="null" fill="#2b1702"/>
    <path id="svg_5" d="m3147.03782,2163.53333c-11.52798,-28.74006 -3.29371,-96.0739 10.70456,-91.14704c5.76399,1.64229 10.70456,22.99204 12.35141,50.91096c3.29371,55.01668 -9.0577,77.18758 -23.05597,40.23608z" stroke="null" fill="#2b1702"/>
    <path id="svg_6" d="m2782.25944,2154.50074c-8.23427,-8.21144 -6.58742,-87.04131 2.47028,-101.00077c10.70456,-16.42289 17.29198,-7.3903 22.23254,32.02463c6.58742,50.91096 -6.58742,87.86246 -24.70282,68.97613l0,0.00001z" stroke="null" fill="#2b1702"/>
    <path id="svg_7" d="m3142.92068,1656.06605c-6.58742,-35.30921 2.47028,-80.47216 14.82169,-76.36643c13.17484,4.10572 13.17484,97.71619 0,101.82191c-5.76399,2.46343 -12.35141,-8.21144 -14.82169,-25.45548z" stroke="null" fill="#2b1702"/>
    <path id="svg_8" d="m2779.78916,1656.06605c-7.41085,-19.70747 0.82343,-97.71619 10.70456,-101.00077c13.17484,-4.92687 22.23254,46.80523 15.64512,83.75674c-5.76399,29.5612 -18.1154,37.77265 -26.34968,17.24403z" stroke="null" fill="#2b1702"/>
    <path id="svg_9" d="m2782.25944,1185.55027c-3.29371,-2.46343 -5.76399,-26.27662 -5.76399,-52.55325c0,-36.9515 3.29371,-49.26867 14.82169,-55.83782c13.17484,-7.3903 13.17484,-8.21144 0,-13.13831c-19.76226,-8.21144 -18.93883,-20.52861 1.64685,-20.52861c19.76226,0 37.87766,27.09777 43.64166,68.15499c3.29371,22.1709 1.64685,30.38235 -6.58742,30.38235c-6.58742,0 -13.17484,-9.85373 -14.82169,-22.1709c-2.47028,-19.70747 -3.29371,-18.88632 -4.94056,5.74801c-2.47028,53.37439 -13.17484,75.54529 -27.99653,59.94355l-0.00001,-0.00001z" stroke="null" fill="#2b1702"/>
    <path id="svg_10" d="m1969.5365,1938.53974c-12.35141,-22.99204 13.17484,-77.18758 38.70109,-80.47216c25.52625,-4.10572 32.11367,24.63433 13.17484,62.40698c-17.29198,35.30921 -38.70109,42.69951 -51.87593,18.06518z" stroke="null" fill="#2b1702"/>
    <path id="svg_11" d="m1678.04316,1801.40862c-8.23427,-19.70747 10.70456,-67.33385 30.46682,-77.18758c36.23081,-19.70747 48.58222,40.23608 16.46855,77.18758c-16.46855,18.06518 -40.34795,18.06518 -46.93537,0z" stroke="null" fill="#2b1702"/>
    <path id="svg_12" d="m1390.66697,1670.0255c-3.29371,-2.46343 -5.76399,-18.06518 -5.76399,-32.84578c0,-36.9515 35.40738,-74.72415 54.34621,-59.1224c9.0577,7.3903 11.52798,18.88632 8.23427,38.59379c-6.58742,41.87837 -38.70109,72.26071 -56.8165,53.37439l0.00001,0z" stroke="null" fill="#2b1702"/>
    <path id="svg_13" d="m1474.65657,1637.17973c-0.82343,-4.10572 -2.47028,-13.95946 -3.29371,-22.99204c-0.82343,-9.03259 -4.11714,-23.81319 -7.41085,-33.66692c-3.29371,-11.49602 -0.82343,-21.34976 8.23427,-28.74006c11.52798,-9.03259 15.64512,-8.21144 28.81996,8.21144c17.29198,21.34976 20.58569,58.30126 5.76399,73.08186c-10.70456,10.67488 -30.46682,13.13831 -32.11367,4.10572l0.00001,0z" stroke="null" fill="#2b1702"/>
    <path id="svg_14" d="m2112.81288,1556.70757c-2.47028,-11.49602 -0.82343,-32.02463 4.94056,-45.98409c19.76226,-47.62638 60.93363,-47.62638 59.28678,0.82114c-1.64685,55.01668 -52.69936,91.14704 -64.22734,45.16295z" stroke="null" fill="#2b1702"/>
    <path id="svg_15" d="m1822.14297,1447.49536c-10.70456,-20.52861 -1.64685,-55.01668 20.58569,-76.36643c42.81823,-39.41493 60.11021,27.91891 18.1154,72.26071c-21.40911,22.99204 -27.99653,23.81319 -38.70109,4.10572z" stroke="null" fill="#2b1702"/>
    <path id="svg_16" d="m1519.12166,1284.08761c-24.70282,-9.03259 -4.94056,-88.6836 23.05597,-96.89505c21.40911,-7.3903 32.11367,1.64229 32.11367,25.45548c0,41.05722 -30.46682,79.65101 -55.16964,71.43957z" stroke="null" fill="#2b1702"/>
    <path id="svg_17" d="m2263.50011,1193.76172c-9.88113,-9.03259 -6.58742,-43.52066 7.41085,-68.97613c18.1154,-35.30921 47.75879,-30.38235 51.0525,7.3903c4.11714,44.3418 -34.58395,85.39902 -58.46335,61.58583z" stroke="null" fill="#2b1702"/>
    <path id="svg_18" d="m2343.37258,1121.501c-21.40911,-52.55325 -7.41085,-82.93559 23.05597,-46.80523c18.93883,21.34976 23.8794,41.87837 14.82169,59.94355c-13.17484,22.99204 -23.8794,18.88632 -37.87766,-13.13831l0,-0.00001z" stroke="null" fill="#2b1702"/>
    <path id="svg_19" d="m1973.65363,1043.49228c-7.41085,-23.81319 20.58569,-78.00872 40.34795,-78.00872c27.17311,0 33.76053,22.99204 16.46855,58.30126c-18.1154,36.9515 -47.75879,47.62638 -56.8165,19.70747l0,-0.00001z" stroke="null" fill="#2b1702"/>
    <path id="svg_20" d="m1656.63405,899.792c-13.99827,-16.42289 -3.29371,-55.83782 20.58569,-78.00872c16.46855,-15.60174 22.23254,-17.24403 32.9371,-8.21144c17.29198,13.95946 15.64512,40.23608 -4.11714,72.26071c-17.29198,28.74006 -33.76053,32.84578 -49.40565,13.95946l0,-0.00001z" stroke="null" fill="#2b1702"/>
    <path id="svg_21" d="m3336.42614,1154.34678c-12.35141,-14.7806 -4.11714,-28.74006 17.29198,-28.74006c11.52798,0 15.64512,5.74801 15.64512,20.52861c0,22.99204 -17.29198,27.09777 -32.9371,8.21144l0,0.00001z" stroke="null" fill="#2b1702"/>
    <path id="svg_22" d="m3123.15842,935.10121c-10.70456,-29.5612 3.29371,-49.26867 33.76053,-45.98409c51.87593,4.92687 51.87593,57.48011 -0.82343,62.40698c-20.58569,2.46343 -27.17311,-0.82114 -32.9371,-16.42289z" stroke="null" fill="#2b1702"/>
    <path id="svg_23" d="m3336.42614,916.21489c-13.17484,-16.42289 -3.29371,-28.74006 23.8794,-28.74006c23.05597,0 49.40565,19.70747 36.23081,27.09777c-21.40911,11.49602 -51.0525,13.13831 -60.11021,1.64229z" stroke="null" fill="#2b1702"/>
   </g>
  </g>
 </g>

</svg>